HIERARCHY
ROOT Hips
{
	OFFSET 0.00000 0.00000 0.00000
	CHANNELS 6 Xposition Yposition Zposition Zrotation Yrotation Xrotation 
	JOINT RightUpLegDummy
	{
		OFFSET 0 0 0
		CHANNELS 3 Zrotation Yrotation Xrotation
		JOINT RightUpLeg
		{
			OFFSET -3.52197 -3.41223 0.04002
			CHANNELS 3 Zrotation Yrotation Xrotation
			JOINT RightLeg
			{
				OFFSET 0.00006 -17.42390 1.60435
				CHANNELS 3 Zrotation Yrotation Xrotation
				JOINT RightFoot
				{
					OFFSET 0.06153 -16.50078 -1.63901
					CHANNELS 3 Zrotation Yrotation Xrotation
					JOINT RightToes
					{
						OFFSET 0.00298 -1.73825 3.34613
						CHANNELS 3 Zrotation Yrotation Xrotation
						End Site
						{
							OFFSET 0.00480 -0.05416 3.85043
						}
					}
				}
			}
		}
	}
	JOINT SpineDummy
	{
		OFFSET 0 0 0
		CHANNELS 3 Zrotation Yrotation Xrotation
		JOINT Spine
		{
			OFFSET 0.00000 4.68130 0.00000
			CHANNELS 3 Zrotation Yrotation Xrotation
			JOINT Spine1
			{
				OFFSET -0.00000 10.10138 0.05002
				CHANNELS 3 Zrotation Yrotation Xrotation
				JOINT HEadDummy
				{
					OFFSET 0 0 0
					CHANNELS 3 Zrotation Yrotation Xrotation
					JOINT Head
					{
						OFFSET -0.00000 3.43865 0.00438
						CHANNELS 3 Zrotation Yrotation Xrotation
						End Site
						{
							OFFSET -0.11417 5.02924 0.98962
						}
					}
				}
				JOINT LeftShoulder1Dummy
				{
					OFFSET 0 0 0
					CHANNELS 3 Zrotation Yrotation Xrotation
					JOINT LeftShoulder1
					{
						OFFSET 3.53937 -0.14262 -0.08662
						CHANNELS 3 Zrotation Yrotation Xrotation
						JOINT LeftArm
						{
							OFFSET 4.04833 -0.00133 0.12681
							CHANNELS 3 Zrotation Yrotation Xrotation
							JOINT LeftForeArm
							{
								OFFSET 10.33880 -0.01036 -0.55515
								CHANNELS 3 Zrotation Yrotation Xrotation
								JOINT LeftHand
								{
									OFFSET 8.69677 0.07543 0.40060
									CHANNELS 3 Zrotation Yrotation Xrotation
									End Site
									{
										OFFSET 5.28377 -0.21905 0.59205
									}
								}
							}
						}
					}
				}
				JOINT RightShoulderDummy
				{
					OFFSET 0 0 0
					CHANNELS 3 Zrotation Yrotation Xrotation
					JOINT RightShoulder
					{
						OFFSET -3.53937 -0.14262 -0.08660
						CHANNELS 3 Zrotation Yrotation Xrotation
						JOINT RightArm
						{
							OFFSET -4.04833 -0.00133 0.12683
							CHANNELS 3 Zrotation Yrotation Xrotation
							JOINT RightForeArm
							{
								OFFSET -10.37987 -0.01039 -0.55511
								CHANNELS 3 Zrotation Yrotation Xrotation
								JOINT RightHand
								{
									OFFSET -8.67398 0.07538 0.40058
									CHANNELS 3 Zrotation Yrotation Xrotation
									End Site
									{
										OFFSET -5.24810 -0.21916 0.59204
									}
								}
							}
						}
					}
				}
			}
		}
	}
	JOINT LeftUpLegDummy
	{
		OFFSET 0 0 0
		CHANNELS 3 Zrotation Yrotation Xrotation
		JOINT LeftUpLeg
		{
			OFFSET 3.52197 -3.41223 0.04002
			CHANNELS 3 Zrotation Yrotation Xrotation
			JOINT LeftLeg
			{
				OFFSET -0.00012 -17.42399 1.60337
				CHANNELS 3 Zrotation Yrotation Xrotation
				JOINT LeftFoot
				{
					OFFSET -0.09972 -16.50070 -1.63802
					CHANNELS 3 Zrotation Yrotation Xrotation
					JOINT LeftToes
					{
						OFFSET -0.01575 -1.73823 3.34611
						CHANNELS 3 Zrotation Yrotation Xrotation
						End Site
						{
							OFFSET 0.03150 -0.01868 3.85031
						}
					}
				}
			}
		}
	}
}
MOTION
Frames: 17
Frame Time: 0.033333
28.0215 39.2168 25.9910 -178.0320 2.4849 175.3240 0.0000 0.0000 0.0000 3.7853 1.3193 -11.4968 -0.7396 -5.4123 4.3764 2.8725 -0.4362 6.9217 0.0000 -0.0000 0.0000 0.0000 0.0000 0.0000 0.2302 -0.0511 5.6066 3.3326 -0.6642 -0.7021 -0.0000 0.0000 -0.0000 -2.1580 5.4923 9.2516 -0.0000 0.0000 -0.0000 -33.8859 -2.6986 2.4829 -41.6331 -15.8167 -21.3809 -8.1518 5.0046 53.0047 15.7861 -3.1827 -1.1426 -0.0000 0.0000 -0.0000 34.9961 5.2009 3.5706 38.4089 3.8597 -18.1790 10.4992 -3.9271 24.0856 -10.7149 0.6752 -0.5532 0.0000 0.0000 0.0000 1.8161 6.8636 14.0482 -5.4859 -13.7700 12.9601 6.0625 0.2386 -14.2251 0.0000 0.0000 -0.0000
28.2391 39.2136 25.1853 -177.8230 1.5517 175.1230 0.0000 0.0000 0.0000 4.0256 0.9064 -10.9842 -0.7342 -6.0138 6.3308 2.3218 -0.3373 6.2820 0.0000 -0.0000 0.0000 0.0000 0.0000 0.0000 0.7296 -0.1550 5.4451 3.3364 -0.7745 -0.6179 -0.0000 0.0000 -0.0000 -2.0284 5.5780 9.5326 -0.0000 0.0000 -0.0000 -33.8887 -2.6889 2.4816 -41.6682 -14.9638 -21.3518 -8.2852 5.0197 52.4864 15.7295 -2.9862 -1.1131 -0.0000 0.0000 -0.0000 34.8752 5.1829 3.5525 38.4474 3.6155 -18.4303 10.4203 -3.9077 23.7707 -10.8687 0.6749 -0.5612 0.0000 0.0000 0.0000 2.9364 8.0486 14.3263 -6.1484 -15.7969 15.4397 5.2451 0.1730 -13.3747 0.0000 0.0000 -0.0000
28.4673 39.1983 24.4261 -177.7700 0.7218 174.8320 0.0000 0.0000 0.0000 4.2747 0.4393 -10.6048 -0.7168 -5.9786 8.7708 1.0914 -0.1364 4.4847 0.0000 -0.0000 0.0000 0.0000 0.0000 0.0000 0.9389 -0.2215 5.5940 3.4113 -0.8483 -0.7668 -0.0000 0.0000 -0.0000 -1.8536 5.4813 9.8956 -0.0000 0.0000 -0.0000 -33.8279 -2.7066 2.4783 -41.8031 -14.2120 -21.1737 -8.4851 5.0332 51.9922 15.4942 -3.0625 -1.1055 -0.0000 0.0000 -0.0000 34.7001 5.1530 3.5249 38.6210 3.6047 -18.5687 10.3540 -3.8657 23.6808 -10.9722 0.6356 -0.5632 0.0000 0.0000 0.0000 3.9418 8.8218 14.0488 -7.4462 -17.3182 19.0155 4.8398 0.0964 -11.9484 0.0000 0.0000 -0.0000
28.7063 39.1506 23.7277 -177.9240 -0.0724 174.5960 0.0000 0.0000 0.0000 4.4021 0.0392 -10.4694 -0.8245 -6.0009 11.3951 -0.3070 0.0453 2.2691 0.0000 -0.0000 0.0000 0.0000 0.0000 0.0000 0.8048 -0.2360 5.8201 3.5319 -0.8716 -0.9340 -0.0000 0.0000 -0.0000 -1.7127 5.2452 10.1700 -0.0000 0.0000 -0.0000 -33.6272 -2.7332 2.4702 -42.0695 -13.8600 -20.9763 -8.6264 5.0395 51.7411 15.1898 -3.3192 -1.1149 -0.0000 0.0000 -0.0000 34.5659 5.1276 3.5028 38.8332 3.7921 -18.5741 10.3114 -3.5964 23.5945 -10.7253 0.6878 -0.5547 0.0000 0.0000 0.0000 4.8095 8.9846 12.9083 -9.4677 -17.7968 23.7549 3.2494 0.0307 -10.2255 0.0000 0.0000 -0.0000
28.9328 39.0602 23.0929 -178.0770 -0.9696 174.4740 0.0000 0.0000 0.0000 4.4284 -0.3550 -10.5254 -1.0321 -6.4765 13.9486 -1.1394 0.1145 0.0330 0.0000 -0.0000 0.0000 0.0000 0.0000 0.0000 0.7398 -0.2542 6.0537 3.5214 -0.8773 -1.0552 -0.0000 0.0000 -0.0000 -1.5849 4.9760 10.1669 -0.0000 0.0000 -0.0000 -33.4087 -2.7480 2.4652 -42.3749 -14.0020 -20.6136 -8.8014 5.0423 51.5910 15.0986 -3.4732 -1.1270 -0.0000 0.0000 -0.0000 34.5072 5.1173 3.4935 38.9728 4.1248 -18.3270 10.3709 -2.9275 23.1469 -10.5737 0.8617 -0.5614 0.0000 0.0000 0.0000 5.6921 9.0356 10.7095 -11.7902 -17.5567 29.7555 -1.4752 0.0990 -8.0956 0.0000 0.0000 -0.0000
29.1209 38.9359 22.5176 -177.9960 -1.9487 174.3240 0.0000 0.0000 0.0000 4.5534 -0.7584 -10.5371 -1.2256 -7.1613 16.3181 -1.3859 0.1045 -2.1126 0.0000 -0.0000 0.0000 0.0000 0.0000 0.0000 1.1740 -0.2872 6.5048 3.2638 -0.8583 -1.2394 -0.0000 0.0000 -0.0000 -1.5358 4.7295 9.8963 -0.0000 0.0000 -0.0000 -33.4454 -2.7643 2.4739 -42.5257 -14.4901 -20.0120 -9.1122 5.0524 51.1547 15.2154 -3.5492 -1.1454 -0.0000 0.0000 -0.0000 34.4653 5.1142 3.4886 38.9747 4.6306 -17.7558 10.5770 -1.9828 22.3545 -11.0927 0.9768 -0.5996 0.0000 0.0000 0.0000 6.5456 8.5387 7.7377 -13.7502 -16.1060 36.4786 -8.2173 0.4889 -5.0642 0.0000 0.0000 -0.0000
29.2704 38.8061 21.9887 -177.7390 -2.8294 174.0120 0.0000 0.0000 0.0000 4.8262 -1.0756 -10.2956 -1.4002 -7.7378 18.3808 -1.3180 0.0689 -4.0725 0.0000 -0.0000 0.0000 0.0000 0.0000 0.0000 1.9680 -0.2522 7.2966 2.8768 -0.7431 -1.5271 -0.0000 0.0000 -0.0000 -1.6282 4.4791 9.5449 -0.0000 0.0000 -0.0000 -33.7215 -2.7854 2.4997 -42.6381 -15.1469 -19.3351 -9.4824 5.0781 50.1751 15.3514 -3.7108 -1.1763 -0.0000 0.0000 -0.0000 34.3998 5.1087 3.4807 38.8134 5.3383 -16.9655 10.8705 -1.0512 21.5561 -11.9834 0.9384 -0.6449 0.0000 0.0000 0.0000 7.1990 7.7826 4.6062 -14.3010 -13.3980 42.8551 -12.8963 1.0743 -1.8455 0.0000 0.0000 -0.0000
29.3973 38.7172 21.4688 -177.5990 -3.6143 173.5910 0.0000 0.0000 0.0000 5.0371 -1.2910 -9.6756 -1.6841 -8.2351 19.8778 -1.0046 0.0283 -5.7186 0.0000 -0.0000 0.0000 0.0000 0.0000 0.0000 2.5796 -0.1184 8.1646 2.5668 -0.5335 -1.7329 -0.0000 0.0000 -0.0000 -1.7355 4.2274 9.2973 -0.0000 0.0000 -0.0000 -33.9058 -2.7792 2.5090 -43.1072 -15.8944 -18.6571 -9.8161 5.1172 48.7287 15.4198 -3.8777 -1.2028 -0.0000 0.0000 -0.0000 34.3339 5.1006 3.4716 38.5136 6.1619 -16.1711 11.1443 -0.2675 20.9676 -12.4452 0.9119 -0.6677 0.0000 0.0000 0.0000 7.3818 7.1250 1.7324 -12.4496 -9.7417 47.8374 -12.8479 1.2233 -0.5155 0.0000 0.0000 -0.0000
29.5102 38.7045 20.9216 -177.7300 -4.5807 173.2030 0.0000 0.0000 0.0000 5.0204 -1.4941 -8.6335 -2.1622 -8.9016 20.5916 -0.5535 -0.0051 -7.0000 0.0000 -0.0000 0.0000 0.0000 0.0000 0.0000 2.7343 0.0058 8.7512 2.3830 -0.3613 -1.7027 -0.0000 0.0000 -0.0000 -1.6860 4.0756 9.2658 -0.0000 0.0000 -0.0000 -33.8346 -2.7516 2.4935 -44.0284 -16.6279 -17.7874 -10.1852 5.1605 47.0728 15.3373 -3.9402 -1.2040 -0.0000 0.0000 -0.0000 34.2715 5.0908 3.4623 38.1805 6.9742 -15.5907 11.3098 0.3809 20.6077 -12.2851 1.0471 -0.6722 0.0000 0.0000 0.0000 6.9926 6.5300 -0.8350 -8.0894 -5.7084 50.8086 -9.2325 0.7843 -1.8804 0.0000 0.0000 -0.0000
29.6049 38.7481 20.3560 -178.0110 -5.8781 172.9650 0.0000 0.0000 0.0000 4.8474 -1.7111 -7.4092 -2.7596 -9.8532 20.7491 -0.1936 -0.0249 -8.0267 0.0000 -0.0000 0.0000 0.0000 0.0000 0.0000 2.6483 0.0044 9.0139 2.1958 -0.3265 -1.6011 -0.0000 0.0000 -0.0000 -1.5128 4.1045 9.5104 -0.0000 0.0000 -0.0000 -33.6811 -2.7527 2.4842 -45.0377 -17.1270 -16.5631 -10.7143 5.2000 45.4108 14.9658 -4.0966 -1.1926 -0.0000 0.0000 -0.0000 34.1779 5.0771 3.4486 37.9390 7.7322 -15.3221 11.3460 0.8595 20.4368 -11.9262 1.2108 -0.6679 0.0000 0.0000 0.0000 6.2229 5.8531 -3.2258 -2.7809 -2.0739 51.6814 -5.0732 0.3321 -4.4218 0.0000 0.0000 -0.0000
29.6770 38.8036 19.8041 -178.2850 -7.2477 172.9570 0.0000 0.0000 0.0000 4.6474 -1.9401 -6.3633 -3.2633 -10.8413 20.7407 0.0278 -0.0327 -8.9180 0.0000 -0.0000 0.0000 0.0000 0.0000 0.0000 2.6219 -0.0738 9.1201 1.8874 -0.3494 -1.6922 -0.0000 0.0000 -0.0000 -1.3905 4.2411 9.9574 -0.0000 0.0000 -0.0000 -33.6279 -2.7567 2.4825 -45.8134 -17.2562 -15.0772 -11.3849 5.2328 43.8631 14.4455 -4.5447 -1.2021 -0.0000 0.0000 -0.0000 34.0509 5.0603 3.4309 37.8238 8.4289 -15.2346 11.3210 1.1705 20.3297 -11.6302 1.2239 -0.6521 0.0000 0.0000 0.0000 5.3570 5.2548 -5.5129 1.1427 0.4519 50.7225 -2.3819 0.1368 -6.5073 0.0000 0.0000 -0.0000
29.7309 38.8523 19.2700 -178.5580 -8.3115 173.1500 0.0000 0.0000 0.0000 4.4327 -2.1777 -5.5578 -3.5403 -11.5442 20.6906 0.2004 -0.0389 -9.7049 0.0000 -0.0000 0.0000 0.0000 0.0000 0.0000 2.6646 -0.0509 9.1514 1.5083 -0.2540 -1.9092 -0.0000 0.0000 -0.0000 -1.4011 4.3309 10.3141 -0.0000 0.0000 -0.0000 -33.6867 -2.6664 2.4503 -46.3762 -17.1921 -13.5779 -12.0345 5.2642 42.6233 14.2676 -5.0583 -1.2465 -0.0000 0.0000 -0.0000 33.9243 5.0426 3.4128 37.7785 8.9977 -15.0804 11.3260 1.5179 20.1524 -11.4373 1.1811 -0.6371 0.0000 0.0000 0.0000 4.4612 5.0819 -7.5966 3.0670 1.9144 48.2072 -1.1597 0.0808 -7.9907 0.0000 0.0000 -0.0000
29.7743 38.9022 18.7345 -178.8910 -9.0161 173.3490 0.0000 0.0000 0.0000 4.2072 -2.3820 -4.6836 -3.6999 -11.9952 20.4756 0.2379 -0.0406 -10.3706 0.0000 -0.0000 0.0000 0.0000 0.0000 0.0000 2.6129 0.1747 9.1169 1.2113 0.0319 -1.9113 -0.0000 0.0000 -0.0000 -1.5069 4.3165 10.2628 -0.0000 0.0000 -0.0000 -33.8184 -2.5084 2.3957 -46.8434 -17.2637 -12.3578 -12.4763 5.2073 41.9576 14.6665 -5.2842 -1.3096 -0.0000 0.0000 -0.0000 33.8023 5.0199 3.3933 37.7492 9.3740 -14.7760 11.3802 2.0958 19.9451 -11.4658 1.2616 -0.6462 0.0000 0.0000 0.0000 3.4806 5.4890 -9.2485 3.9461 2.9724 44.3434 -0.5599 0.0654 -9.0397 0.0000 0.0000 -0.0000
29.8080 38.9688 18.1945 -179.2230 -9.7030 173.4150 0.0000 0.0000 0.0000 4.0633 -2.4943 -3.4836 -3.9436 -12.5932 19.9027 0.0384 -0.0404 -10.8595 0.0000 -0.0000 0.0000 0.0000 0.0000 0.0000 2.4355 0.4864 9.0402 1.0814 0.3732 -1.5880 -0.0000 0.0000 -0.0000 -1.6681 4.2898 9.8160 -0.0000 0.0000 -0.0000 -33.9844 -2.4496 2.3823 -47.1971 -17.5515 -11.6763 -12.6281 4.8203 41.8570 15.2430 -5.2704 -1.3618 -0.0000 0.0000 -0.0000 33.6772 4.9919 3.3714 37.7118 9.5819 -14.4460 11.4449 2.7810 19.8037 -11.6877 1.3661 -0.6686 0.0000 0.0000 0.0000 2.4582 6.3533 -10.3948 4.3223 3.9385 39.4249 0.2065 0.0515 -9.2607 0.0000 0.0000 -0.0000
29.8238 39.0534 17.6723 -179.4050 -10.8176 173.5040 0.0000 0.0000 0.0000 4.1051 -2.4838 -2.1365 -4.3528 -13.7504 18.9126 -0.1287 -0.0409 -11.1216 0.0000 -0.0000 0.0000 0.0000 0.0000 0.0000 2.2715 0.6257 8.9290 1.0809 0.5137 -1.2744 -0.0000 0.0000 -0.0000 -1.8475 4.3423 9.3384 -0.0000 0.0000 -0.0000 -34.1116 -2.5365 2.4248 -47.3718 -17.8198 -11.5704 -12.5890 4.5162 41.7948 15.5081 -5.3020 -1.3905 -0.0000 0.0000 -0.0000 33.5745 4.9699 3.3540 37.6629 9.6655 -14.1820 11.5114 3.2671 19.6809 -11.8035 1.3017 -0.6694 0.0000 0.0000 0.0000 1.4562 7.3545 -11.3802 4.0827 4.5087 33.9396 1.4133 0.0151 -8.4966 0.0000 0.0000 -0.0000
29.8124 39.1451 17.1855 -179.3910 -12.5089 173.8420 0.0000 0.0000 0.0000 4.3249 -2.3729 -0.9661 -4.8473 -15.5271 17.6117 0.0902 -0.0416 -11.1744 0.0000 -0.0000 0.0000 0.0000 0.0000 0.0000 2.2202 0.4543 8.7679 1.1168 0.3291 -1.3027 -0.0000 0.0000 -0.0000 -1.9550 4.4175 9.1116 -0.0000 0.0000 -0.0000 -34.1580 -2.6135 2.4585 -47.3729 -17.8937 -11.8296 -12.5084 4.7902 41.4820 15.5001 -5.3774 -1.3993 -0.0000 0.0000 -0.0000 33.5138 4.9618 3.3456 37.6466 9.6247 -13.9552 11.5976 3.4111 19.5376 -11.7384 1.1954 -0.6556 0.0000 0.0000 0.0000 0.3910 8.1960 -12.5934 3.4130 4.5702 28.3042 2.7260 -0.0592 -7.0818 0.0000 0.0000 -0.0000
29.7741 39.2375 16.7225 -179.3360 -14.3615 174.3720 0.0000 0.0000 0.0000 4.5722 -2.2444 0.0337 -5.2394 -17.4762 16.1586 0.5217 -0.0422 -11.1189 0.0000 -0.0000 0.0000 0.0000 0.0000 0.0000 2.2183 0.1726 8.5489 1.1098 0.0384 -1.5135 -0.0000 0.0000 -0.0000 -1.9392 4.3982 9.0217 -0.0000 0.0000 -0.0000 -34.1502 -2.5800 2.4446 -47.2509 -17.9015 -12.3245 -12.3604 5.2905 41.4889 15.5853 -5.2627 -1.3927 -0.0000 0.0000 -0.0000 33.4825 4.9604 3.3424 37.7149 9.5133 -13.7914 11.6844 3.2345 19.4938 -11.8062 1.3000 -0.6694 0.0000 0.0000 0.0000 -0.8974 9.1083 -13.8151 2.7761 4.5667 22.5329 3.5889 -0.1609 -5.1998 0.0000 0.0000 -0.0000
